<svg width="33" height="30" viewBox="0 0 33 30" fill="none" xmlns="http://www.w3.org/2000/svg">
<path fill-rule="evenodd" clip-rule="evenodd" d="M2.00072 10.2294H31.9993C31.9912 6.6448 31.8921 4.75751 30.682 3.54739C29.364 2.22937 27.2426 2.22937 23 2.22937H11C6.75736 2.22937 4.63604 2.22937 3.31802 3.54739C2.10789 4.75751 2.00883 6.6448 2.00072 10.2294ZM32 12.2294H2V15.7294C2 19.972 2 22.0933 3.31802 23.4114C4.63604 24.7294 6.75736 24.7294 11 24.7294H23C27.2426 24.7294 29.364 24.7294 30.682 23.4114C32 22.0933 32 19.972 32 15.7294V12.2294ZM9.5 17.7294C8.94772 17.7294 8.5 18.1771 8.5 18.7294C8.5 19.2817 8.94772 19.7294 9.5 19.7294H9.515C10.0673 19.7294 10.515 19.2817 10.515 18.7294C10.515 18.1771 10.0673 17.7294 9.515 17.7294H9.5Z" fill="white"/>
</svg>
