<svg width="28" height="34" viewBox="0 0 28 34" fill="none" xmlns="http://www.w3.org/2000/svg">
<path fill-rule="evenodd" clip-rule="evenodd" d="M14.1665 3.0968V10.8957L14.1665 10.9501V10.9501C14.1664 11.3742 14.1663 11.7863 14.212 12.1262C14.2636 12.5094 14.3891 12.9467 14.7523 13.3099C15.1155 13.6731 15.5528 13.7986 15.936 13.8501C16.2759 13.8958 16.688 13.8958 17.1121 13.8957H17.1121L17.1665 13.8957H23.3332V22.6945C23.3332 26.6539 23.3332 28.6335 22.308 29.8636C21.2829 31.0936 19.633 31.0936 16.3332 31.0936H11.6665C8.36667 31.0936 6.71676 31.0936 5.69163 29.8636C4.6665 28.6335 4.6665 26.6539 4.6665 22.6945V11.4958C4.6665 7.53649 4.6665 5.55682 5.69163 4.32681C6.71676 3.0968 8.36667 3.0968 11.6665 3.0968H14.1665ZM16.1665 3.09958V10.8957C16.1665 11.3954 16.1686 11.6695 16.1942 11.8597L16.1952 11.867L16.2025 11.868C16.3927 11.8936 16.6668 11.8957 17.1665 11.8957H23.3324C23.3284 11.0846 23.304 10.6143 23.1556 10.1843C22.9779 9.66977 22.6407 9.26518 21.9663 8.45599L21.9663 8.45598L18.8667 4.73681C18.1923 3.92762 17.8551 3.52303 17.4263 3.30991C17.0984 3.14695 16.7424 3.1086 16.1665 3.09958Z" fill="white"/>
</svg>
