<svg width="33" height="30" viewBox="0 0 33 30" fill="none" xmlns="http://www.w3.org/2000/svg">
<g clip-path="url(#clip0_41_1344)">
<path d="M31.6504 0.761292H11.4986C11.1885 0.761292 10.891 0.909113 10.6717 1.17224C10.4525 1.43536 10.3293 1.79223 10.3293 2.16435V6.23321H5.96368C5.74369 6.23354 5.52824 6.30832 5.34208 6.44896C5.15592 6.5896 5.0066 6.79039 4.91127 7.02828L2.14381 13.155H1.94892C1.43203 13.155 0.936317 13.4013 0.570824 13.8399C0.205331 14.2784 0 14.8732 0 15.4934V23.9585C0 24.3306 0.123199 24.6875 0.342495 24.9506C0.56179 25.2137 0.859218 25.3616 1.16935 25.3616H2.14381C2.38723 26.4756 2.93251 27.4609 3.69381 28.1624C4.45512 28.8639 5.38922 29.2417 6.34909 29.2363C7.30896 29.231 8.24009 28.8428 8.99592 28.1328C9.75175 27.4229 10.2894 26.4315 10.5241 25.3148H21.1652C21.4044 26.4302 21.9458 27.4185 22.7044 28.1241C23.4629 28.8298 24.3955 29.2128 25.3554 29.2128C26.3152 29.2128 27.2478 28.8298 28.0064 28.1241C28.765 27.4185 29.3064 26.4302 29.5456 25.3148H31.6504C31.9605 25.3148 32.2579 25.167 32.4772 24.9038C32.6965 24.6407 32.8197 24.2838 32.8197 23.9117V2.16435C32.8197 1.9801 32.7895 1.79765 32.7307 1.62742C32.672 1.4572 32.5858 1.30252 32.4772 1.17224C32.3687 1.04195 32.2398 0.938603 32.0979 0.868093C31.956 0.797583 31.804 0.761292 31.6504 0.761292ZM6.35347 26.3905C5.9603 26.3905 5.57596 26.2506 5.24905 25.9885C4.92214 25.7264 4.66735 25.3539 4.51689 24.918C4.36643 24.4822 4.32706 24.0026 4.40377 23.5399C4.48047 23.0773 4.6698 22.6523 4.94781 22.3187C5.22582 21.9851 5.58003 21.7579 5.96565 21.6659C6.35126 21.5739 6.75096 21.6211 7.1142 21.8016C7.47744 21.9822 7.78791 22.2879 8.00634 22.6801C8.22477 23.0724 8.34136 23.5335 8.34136 24.0053C8.34136 24.6379 8.13192 25.2445 7.75912 25.6919C7.38632 26.1392 6.88069 26.3905 6.35347 26.3905ZM10.3293 21.9007C9.98979 20.9591 9.42542 20.1593 8.70739 19.6023C7.98937 19.0452 7.14989 18.756 6.29495 18.771C5.44001 18.786 4.60794 19.1046 3.90381 19.6866C3.19968 20.2686 2.65505 21.0879 2.3387 22.041V15.9611H10.3293V21.9007ZM10.3293 13.2017H4.79433L6.62631 9.0861H10.2903L10.3293 13.2017ZM25.3359 26.3905C24.9533 26.3873 24.5796 26.2517 24.2597 26C23.9397 25.7482 23.6871 25.3911 23.5321 24.9713C23.3772 24.5516 23.3265 24.0871 23.3861 23.6337C23.4457 23.1802 23.6131 22.757 23.8683 22.4149C24.1234 22.0728 24.4554 21.8263 24.8244 21.7049C25.1933 21.5836 25.5837 21.5926 25.9485 21.7309C26.3133 21.8692 26.6372 22.1309 26.8811 22.4845C27.1251 22.8382 27.2788 23.2688 27.3238 23.7247C27.3202 23.7869 27.3202 23.8494 27.3238 23.9117C27.3182 23.9895 27.3182 24.0678 27.3238 24.1456C27.2939 24.7535 27.0714 25.3248 26.7018 25.7422C26.3322 26.1596 25.8435 26.3915 25.3359 26.3905Z" fill="white"/>
</g>
<defs>
<clipPath id="clip0_41_1344">
<rect width="33" height="28.7967" fill="white" transform="translate(0 0.761292)"/>
</clipPath>
</defs>
</svg>
