<svg width="30" height="30" viewBox="0 0 30 30" fill="none" xmlns="http://www.w3.org/2000/svg">
<path d="M24.9714 23.3929L21.1138 20.3624C20.3233 19.7311 19.185 19.8573 18.521 20.615C17.8254 21.4042 17.3827 21.9408 17.2246 22.0671C16.0547 23.2351 13.62 21.5304 11.0272 18.9419C8.43445 16.3533 6.75863 13.9541 7.92854 12.7861C8.05502 12.6599 8.59255 12.1863 9.38304 11.4918C10.1419 10.8289 10.2684 9.69248 9.63599 8.90328L6.60053 5.052C6.063 4.38907 5.14604 4.16809 4.38718 4.48377C3.34374 4.92572 1.4782 6.47255 0.972287 6.97764C-1.81022 9.78718 1.66791 16.1639 7.73883 22.2565C13.8097 28.3491 20.2285 31.8216 23.011 29.012C23.5169 28.5069 25.0662 26.6444 25.5089 25.6027C25.8567 24.8135 25.6354 23.9296 24.9714 23.3929Z" fill="#272727"/>
<path d="M15.4855 9.85031C14.6634 9.6609 13.8729 10.2923 13.9362 11.1446C13.9678 11.6812 14.3788 12.1232 14.8848 12.281C15.5488 12.4389 16.1811 12.7861 16.6871 13.2912C17.193 13.7963 17.5408 14.4277 17.6989 15.0906C17.8254 15.6272 18.268 16.0061 18.8372 16.0376C19.6909 16.1008 20.3233 15.3116 20.1336 14.4908C19.9122 13.4175 19.3431 12.3757 18.4894 11.5234C17.6356 10.6711 16.5922 10.1029 15.4855 9.85031Z" fill="#272727"/>
<path d="M23.8331 16.4164C24.5919 16.4796 25.2243 15.8167 25.1611 15.059C24.9398 12.5336 23.8647 10.0397 21.9359 8.11409C20.0071 6.18844 17.5092 5.11514 14.9797 4.89416C14.2208 4.83102 13.5568 5.46238 13.62 6.22001C13.6516 6.8198 14.1259 7.32489 14.7583 7.38802C16.7503 7.54586 18.6791 8.3982 20.1652 9.91346C21.683 11.4287 22.5051 13.3544 22.6948 15.3116C22.6948 15.9114 23.2007 16.3849 23.8331 16.4164Z" fill="#272727"/>
<path d="M25.3508 4.67318C22.3469 1.7058 18.4577 0.127407 14.5053 0.00113521C13.7781 -0.0304327 13.1773 0.600925 13.2405 1.32699C13.2722 1.95834 13.8097 2.46343 14.4421 2.495C17.7621 2.62127 21.0505 3.94712 23.5484 6.47255C26.078 8.99798 27.406 12.281 27.5009 15.5641C27.5325 16.1955 28.0068 16.7321 28.6708 16.7637C29.398 16.8268 30.0304 16.227 29.9988 15.501C29.9039 11.555 28.323 7.67213 25.3508 4.67318Z" fill="#272727"/>
</svg>
