<svg width="30" height="23" viewBox="0 0 30 23" fill="none" xmlns="http://www.w3.org/2000/svg">
<path d="M28.9172 6.63502H25.3578V0.921531C25.3578 0.677126 25.2453 0.442731 25.0451 0.26991C24.8448 0.0970897 24.5732 0 24.29 0H5.70998C5.42678 0 5.15518 0.0970897 4.95492 0.26991C4.75467 0.442731 4.64216 0.677126 4.64216 0.921531V6.63502H1.08277C0.926227 6.63313 0.771117 6.66097 0.628427 6.71656C0.485736 6.77216 0.358957 6.85415 0.25707 6.95674C0.155183 7.05932 0.0806805 7.17998 0.0388399 7.31018C-0.00300061 7.44038 -0.0111555 7.57692 0.014953 7.71014L2.75569 21.871C2.79815 22.0879 2.92914 22.2846 3.12499 22.4254C3.32083 22.5663 3.5686 22.642 3.8235 22.6389H26.1765C26.4314 22.642 26.6792 22.5663 26.875 22.4254C27.0709 22.2846 27.2019 22.0879 27.2443 21.871L29.985 7.71014C30.0112 7.57692 30.003 7.44038 29.9612 7.31018C29.9193 7.17998 29.8448 7.05932 29.7429 6.95674C29.641 6.85415 29.5143 6.77216 29.3716 6.71656C29.2289 6.66097 29.0738 6.63313 28.9172 6.63502ZM7.9524 17.9391L6.84899 11.7649L8.94903 11.4884L10.0524 17.6627L7.9524 17.9391ZM16.0678 17.8163H13.9322V11.6113H16.0678V17.8163ZM22.0476 17.9698L19.9476 17.6934L21.051 11.5191L23.151 11.7956L22.0476 17.9698ZM23.2222 6.63502H6.7778V1.84306H23.2222V6.63502Z" fill="#272727"/>
</svg>
