<svg width="18" height="20" viewBox="0 0 18 20" fill="none" xmlns="http://www.w3.org/2000/svg">
<path fill-rule="evenodd" clip-rule="evenodd" d="M0.352879 6.15011C0 6.85929 0 7.66609 0 9.27968V14.3191C0 16.56 0 17.6805 0.753154 18.3766C1.46839 19.0377 2.59758 19.071 4.78577 19.0727V13.1307C4.78577 11.8495 5.88466 10.9423 7.07148 10.9423H10.9286C12.1154 10.9423 13.2143 11.8495 13.2143 13.1307V19.0727C15.4025 19.071 16.5316 19.0377 17.2468 18.3766C18 17.6805 18 16.56 18 14.3191V9.27968C18 7.66609 18 6.85929 17.6471 6.15011C17.2942 5.44093 16.6315 4.91587 15.3061 3.86576L14.0204 2.84711C11.6247 0.949035 10.4268 0 9 0C7.57315 0 6.3753 0.949035 3.97961 2.84711L2.6939 3.86576L2.69389 3.86576C1.36847 4.91587 0.705757 5.44093 0.352879 6.15011ZM11.2143 19.0728V13.1307C11.2143 13.1054 11.2052 13.0674 11.159 13.0247C11.1115 12.9808 11.0326 12.9423 10.9286 12.9423H7.07148C6.96755 12.9423 6.88863 12.9808 6.84112 13.0247C6.79494 13.0674 6.78577 13.1054 6.78577 13.1307V19.0728H11.2143Z" fill="#75DBC6"/>
</svg>
