<svg width="26" height="26" viewBox="0 0 26 26" fill="#75DBC6" xmlns="http://www.w3.org/2000/svg">
<path d="M24.9714 19.051L21.1138 16.0204C20.3233 15.3891 19.185 15.5153 18.521 16.273C17.8254 17.0622 17.3827 17.5988 17.2246 17.7251C16.0547 18.8931 13.62 17.1884 11.0272 14.5999C8.43445 12.0113 6.75863 9.61215 7.92854 8.44414C8.05502 8.31787 8.59255 7.84435 9.38304 7.14985C10.1419 6.48693 10.2684 5.35048 9.63599 4.56129L6.60053 0.710001C6.063 0.0470748 5.14604 -0.1739 4.38718 0.141779C3.34374 0.583729 1.4782 2.13056 0.972287 2.63564C-1.81022 5.44519 1.66791 11.8219 7.73883 17.9145C13.8097 24.0071 20.2285 27.4796 23.011 24.67C23.5169 24.165 25.0662 22.3024 25.5089 21.2607C25.8567 20.4715 25.6354 19.5876 24.9714 19.051Z" fill="#75DBC6"/>
</svg>
