<svg width="30" height="35" viewBox="0 0 30 35" fill="none" xmlns="http://www.w3.org/2000/svg">
<path fill-rule="evenodd" clip-rule="evenodd" d="M15.4003 34.0948C17.7835 32.9199 30 26.3439 30 15C30 6.71573 23.2843 0 15 0C6.71573 0 0 6.71573 0 15C0 26.3439 12.2165 32.9199 14.5997 34.0948C14.8552 34.2208 15.1448 34.2208 15.4003 34.0948ZM15 21.4286C18.5504 21.4286 21.4286 18.5504 21.4286 15C21.4286 11.4496 18.5504 8.57143 15 8.57143C11.4496 8.57143 8.57143 11.4496 8.57143 15C8.57143 18.5504 11.4496 21.4286 15 21.4286Z" fill="#75DBC6"/>
</svg>
